<svg width="750" height="750" viewBox="0 0 750 750" fill="none" xmlns="http://www.w3.org/2000/svg">
<path fill-rule="evenodd" clip-rule="evenodd" d="M398.646 69.2178C394.51 59.3796 384.861 52.9858 374.172 53C363.483 53.0143 353.843 59.4339 349.721 69.2831L102.058 661.093C96.4099 674.59 102.787 690.095 116.301 695.726C129.816 701.357 145.35 694.981 150.998 681.485L374.242 148.026L598.582 681.607C604.25 695.089 619.794 701.423 633.3 695.756C646.806 690.089 653.16 674.566 647.492 661.085L398.646 69.2178ZM285.478 592.554C275.1 592.554 265.68 598.611 261.375 608.051L237.554 660.287C231.482 673.601 237.356 689.32 250.673 695.396C263.991 701.472 279.708 695.605 285.78 682.291L302.534 645.552H447.279L462.975 681.809C468.79 695.241 484.393 701.42 497.824 695.611C511.255 689.801 517.43 674.202 511.614 660.77L489 608.533C484.801 598.833 475.24 592.554 464.671 592.554H285.478Z" fill="#009BCE"/>
<path d="M374.643 396L418.643 493.098L329.918 493.098" stroke="#0668C9" stroke-width="53" stroke-linecap="round" stroke-linejoin="round"/>
</svg>
